<svg width="237" height="249" viewBox="0 0 237 249" fill="none" xmlns="http://www.w3.org/2000/svg">
<path fill-rule="evenodd" clip-rule="evenodd" d="M55.1625 8.18583L53.5657 20.9598C50.4352 46.0023 31.2103 66.003 6.31527 70.124C31.2103 74.2451 50.4352 94.2458 53.5657 119.288L55.1625 132.062L56.7594 119.288C59.8899 94.2458 79.1148 74.2451 104.01 70.124C79.1148 66.003 59.8899 46.0023 56.7594 20.9598L55.1625 8.18583ZM51.5811 20.7117L54.1702 0L56.1548 6.70552e-08L58.7439 20.7117C61.7664 44.8902 80.3375 64.1979 104.38 68.1581L110.325 69.1373L110.325 71.1107L104.38 72.09C80.3375 76.0502 61.7664 95.3579 58.7439 119.536L56.1548 140.248H54.1702L51.5811 119.536C48.5587 95.3579 29.9876 76.0502 5.94482 72.0899L1.11759e-06 71.1107L0 69.1373L5.94483 68.1581C29.9876 64.1979 48.5586 44.8902 51.5811 20.7117Z" fill="#415A77"/>
<path fill-rule="evenodd" clip-rule="evenodd" d="M198 40.1869L197.074 49.8415C195.258 68.7687 184.105 83.8853 169.664 87C184.105 90.1147 195.258 105.231 197.074 124.159L198 133.813L198.926 124.159C200.742 105.231 211.895 90.1147 226.336 87C211.895 83.8853 200.742 68.7687 198.926 49.8415L198 40.1869ZM195.922 49.654L197.424 34L198.576 34L200.078 49.654C201.831 67.9282 212.604 82.521 226.551 85.5142L230 86.2542L230 87.7458L226.551 88.4858C212.604 91.479 201.831 106.072 200.078 124.346L198.576 140H197.424L195.922 124.346C194.169 106.072 183.396 91.479 169.449 88.4858L166 87.7458L166 86.2542L169.449 85.5142C183.396 82.521 194.169 67.9282 195.922 49.654Z" fill="#415A77"/>
<path fill-rule="evenodd" clip-rule="evenodd" d="M127.5 168.961L126.704 176.703C125.143 191.881 115.559 204.002 103.148 206.5C115.559 208.998 125.143 221.119 126.704 236.297L127.5 244.039L128.296 236.297C129.857 221.119 139.441 208.998 151.852 206.5C139.441 204.002 129.857 191.881 128.296 176.703L127.5 168.961ZM125.715 176.553L127.005 164L127.995 164L129.285 176.553C130.792 191.207 140.05 202.908 152.036 205.309L155 205.902L155 207.098L152.036 207.691C140.05 210.092 130.792 221.793 129.285 236.447L127.995 249H127.005L125.715 236.447C124.208 221.793 114.95 210.092 102.964 207.691L100 207.098L100 205.902L102.964 205.309C114.95 202.908 124.208 191.207 125.715 176.553Z" fill="#415A77"/>
</svg>
